# Blender v3.0.0 OBJ File: ''
# www.blender.org
mtllib axe.mtl
o Axe_Mesh
v 0.035363 -0.539593 -0.025572
v 0.007027 -0.539324 -0.038011
v -0.030091 -0.539262 -0.040712
v -0.064243 -0.539453 -0.032826
v -0.084564 -0.539766 -0.016837
v -0.084564 -0.540022 0.002183
v -0.064243 -0.540137 0.018175
v -0.030091 -0.540158 0.026063
v 0.007027 -0.540148 0.023361
v 0.035363 -0.540083 0.010920
v 0.045931 -0.539894 -0.007327
v 0.013523 0.412782 -0.006557
v -0.004450 0.412894 -0.014898
v -0.027989 0.412919 -0.016711
v -0.049622 0.412848 -0.011419
v -0.062479 0.412683 0.000847
v -0.062479 0.412554 0.010473
v -0.049622 0.412389 0.022750
v -0.027989 0.412318 0.028042
v -0.004450 0.412342 0.026229
v 0.013523 0.412454 0.017887
v 0.020223 0.412618 0.005665
v -0.021804 -0.566758 -0.007687
v 0.021580 -0.432987 -0.022491
v 0.004151 -0.432835 -0.033818
v -0.018675 -0.432802 -0.036280
v -0.039652 -0.432899 -0.029095
v -0.052119 -0.433094 -0.014543
v -0.052119 -0.433326 0.002754
v -0.039652 -0.433521 0.017305
v -0.018675 -0.433618 0.024491
v 0.004151 -0.433585 0.022029
v 0.021580 -0.433433 0.010702
v 0.028077 -0.433210 -0.005895
v 0.018988 0.221174 -0.010269
v 0.005172 0.221295 -0.019248
v -0.012923 0.221321 -0.021200
v -0.029551 0.221245 -0.015504
v -0.039435 0.221090 -0.003969
v -0.039435 0.220906 0.009743
v -0.029552 0.220751 0.021278
v -0.012923 0.220674 0.026975
v 0.005172 0.220701 0.025023
v 0.018988 0.220821 0.016044
v 0.024138 0.220998 0.002887
v 0.035585 -0.080896 -0.015973
v 0.020037 -0.080760 -0.026078
v -0.000326 -0.080731 -0.028274
v -0.019039 -0.080817 -0.021864
v -0.030161 -0.080991 -0.008883
v -0.030161 -0.081198 0.006547
v -0.019039 -0.081373 0.019528
v -0.000326 -0.081459 0.025938
v 0.020037 -0.081429 0.023742
v 0.035585 -0.081294 0.013638
v 0.041381 -0.081095 -0.001168
v 0.027918 -0.290600 -0.017479
v 0.013746 -0.290476 -0.026690
v -0.004817 -0.290450 -0.028692
v -0.021875 -0.290528 -0.022849
v -0.032014 -0.290687 -0.011016
v -0.032014 -0.290876 0.003050
v -0.021875 -0.291035 0.014883
v -0.004817 -0.291113 0.020727
v 0.013746 -0.291086 0.018725
v 0.027918 -0.290962 0.009514
v 0.033202 -0.290781 -0.003983
v 0.035226 -0.169546 -0.016610
v 0.040805 -0.169738 -0.002358
v 0.035226 -0.169929 0.011894
v 0.020260 -0.170060 0.021621
v 0.000658 -0.170088 0.023735
v -0.017356 -0.170005 0.017565
v -0.028062 -0.169837 0.005069
v -0.028062 -0.169638 -0.009785
v -0.017356 -0.169470 -0.022280
v 0.000658 -0.169387 -0.028451
v 0.020260 -0.169416 -0.026337
v 0.029690 0.071438 -0.013097
v 0.035160 0.071251 0.000877
v 0.029690 0.071063 0.014851
v 0.015016 0.070935 0.024388
v -0.004203 0.070907 0.026461
v -0.021865 0.070988 0.020411
v -0.032363 0.071153 0.008159
v -0.032363 0.071348 -0.006405
v -0.021865 0.071513 -0.018657
v -0.004203 0.071594 -0.024707
v 0.015016 0.071566 -0.022634
v -0.090802 0.459868 0.034854
v -0.090802 0.460630 -0.021924
v -0.198435 0.460790 0.006338
v -0.162271 0.460803 -0.006717
v -0.194385 0.520884 0.007145
v -0.162271 0.460451 0.019468
v -0.090127 0.422363 0.034350
v -0.090127 0.423125 -0.022428
v -0.194385 0.399697 0.005518
v -0.090127 0.496760 0.035349
v -0.090127 0.497522 -0.021429
v -0.159571 0.514399 -0.005998
v -0.159571 0.514047 0.020187
v -0.159571 0.406317 -0.007449
v -0.159571 0.405965 0.018736
v -0.087777 0.394561 0.026773
v -0.088153 0.398973 0.031073
v 0.032527 0.404432 0.026266
v 0.036794 0.409368 0.027606
v 0.031836 0.405382 0.032984
v -0.087777 0.523836 0.028518
v -0.088165 0.519325 0.032706
v 0.036794 0.508989 0.028821
v 0.032435 0.514076 0.027594
v 0.031885 0.512567 0.034419
v -0.087777 0.524409 -0.014150
v -0.088167 0.519978 -0.018433
v 0.032529 0.514634 -0.014503
v 0.036794 0.509691 -0.015879
v 0.031815 0.513716 -0.021223
v -0.087777 0.395133 -0.015876
v -0.088156 0.399691 -0.020032
v 0.036794 0.410090 -0.017094
v 0.032438 0.404990 -0.015847
v 0.031877 0.406545 -0.022657
v 0.036794 0.459233 0.028383
v 0.032303 0.459187 0.033665
v -0.150169 0.367240 -0.003363
v -0.151447 0.372596 -0.007029
v -0.168572 0.344488 0.004695
v -0.179220 0.339758 0.004626
v -0.150169 0.552016 -0.000897
v -0.151485 0.546791 -0.004695
v -0.168602 0.574616 0.007784
v -0.179248 0.579366 0.007842
v -0.150169 0.367015 0.013447
v -0.151444 0.372257 0.017270
v -0.150169 0.551790 0.015942
v -0.151482 0.546477 0.019613
v 0.032282 0.459933 -0.021908
v 0.036794 0.459837 -0.016647
v -0.150169 0.551905 0.007367
v -0.087777 0.524127 0.006823
v 0.032482 0.514355 0.006546
v 0.036794 0.509337 0.006648
v 0.036794 0.459534 0.005952
v 0.036794 0.409729 0.005256
v 0.032483 0.404708 0.005416
v -0.087777 0.394870 0.003756
v -0.150169 0.367142 0.003956
vt 0.785596 0.779454
vt 0.802306 0.779949
vt 0.806775 0.988632
vt 0.785262 0.988303
vt 0.820726 0.780653
vt 0.832434 0.989172
vt 0.838484 0.781303
vt 0.856670 0.989676
vt 0.853810 0.781509
vt 0.876044 0.989568
vt 0.867590 0.780898
vt 0.886512 0.988564
vt 0.688798 0.781463
vt 0.704084 0.781274
vt 0.683502 0.988762
vt 0.664082 0.988399
vt 0.721805 0.780637
vt 0.707787 0.988542
vt 0.740196 0.779942
vt 0.733485 0.988269
vt 0.756890 0.779452
vt 0.755019 0.988143
vt 0.771243 0.779289
vt 0.770139 0.988193
vt 0.421415 0.547924
vt 0.371927 0.525111
vt 0.468793 0.484813
vt 0.489249 0.550505
vt 0.547590 0.526786
vt 0.578520 0.493544
vt 0.576009 0.459890
vt 0.540486 0.431607
vt 0.479270 0.416811
vt 0.412571 0.429433
vt 0.367018 0.459339
vt 0.352374 0.493502
vt 0.782853 0.010545
vt 0.812263 0.013033
vt 0.806465 0.120836
vt 0.785007 0.120616
vt 0.848197 0.014697
vt 0.829978 0.121299
vt 0.882483 0.015894
vt 0.852594 0.121937
vt 0.908051 0.017833
vt 0.871988 0.123568
vt 0.926046 0.023653
vt 0.888972 0.127375
vt 0.617296 0.028040
vt 0.642925 0.023788
vt 0.680954 0.126257
vt 0.661802 0.128990
vt 0.677426 0.019923
vt 0.703383 0.124415
vt 0.713492 0.015892
vt 0.726746 0.122776
vt 0.742800 0.011694
vt 0.748124 0.121501
vt 0.762780 0.009472
vt 0.766554 0.120734
vt 0.802827 0.628822
vt 0.785347 0.628148
vt 0.785211 0.476035
vt 0.803628 0.476236
vt 0.822141 0.629726
vt 0.823986 0.476523
vt 0.840815 0.630597
vt 0.843686 0.476811
vt 0.856977 0.631220
vt 0.860761 0.477003
vt 0.871587 0.631505
vt 0.876234 0.477020
vt 0.699905 0.631375
vt 0.683745 0.632219
vt 0.677881 0.477794
vt 0.695017 0.477458
vt 0.718574 0.630277
vt 0.714775 0.477001
vt 0.737880 0.629159
vt 0.735173 0.476536
vt 0.755353 0.628302
vt 0.753609 0.476171
vt 0.770347 0.627936
vt 0.769417 0.475995
vt 0.802315 0.387851
vt 0.784571 0.388307
vt 0.783853 0.266368
vt 0.800943 0.265708
vt 0.821954 0.387325
vt 0.819817 0.265043
vt 0.840971 0.386854
vt 0.838037 0.264651
vt 0.857444 0.386491
vt 0.853747 0.264790
vt 0.872376 0.386216
vt 0.867882 0.265722
vt 0.697741 0.387280
vt 0.681242 0.386913
vt 0.684787 0.266580
vt 0.700440 0.266147
vt 0.716780 0.387688
vt 0.718611 0.266164
vt 0.736434 0.388101
vt 0.737453 0.266418
vt 0.754184 0.388432
vt 0.754528 0.266697
vt 0.769372 0.388534
vt 0.769188 0.266732
vt 0.252613 0.687065
vt 0.250382 0.755400
vt 0.118251 0.753094
vt 0.125728 0.652467
vt 0.048297 0.752079
vt 0.058439 0.639685
vt 0.045709 0.243175
vt 0.115516 0.238539
vt 0.128078 0.338536
vt 0.061551 0.354817
vt 0.247344 0.229630
vt 0.253021 0.297548
vt 0.123267 0.855539
vt 0.055770 0.866612
vt 0.250770 0.824883
vt 0.244195 0.160467
vt 0.115303 0.136052
vt 0.047326 0.128490
vt 0.248756 0.103858
vt 0.247721 0.115488
vt 0.126744 0.071972
vt 0.127809 0.059682
vt 0.460996 0.117540
vt 0.456280 0.127263
vt 0.503382 0.870376
vt 0.490632 0.885410
vt 0.470340 0.856644
vt 0.476687 0.846651
vt 0.467847 0.126933
vt 0.485604 0.212561
vt 0.472342 0.213604
vt 0.264488 0.351290
vt 0.262012 0.339910
vt 0.468757 0.300889
vt 0.474652 0.310352
vt 0.149784 0.410247
vt 0.147123 0.398253
vt 0.480215 0.299795
vt 0.494903 0.634824
vt 0.508797 0.649611
vt 0.477431 0.674151
vt 0.472173 0.663778
vt 0.261681 0.632677
vt 0.259683 0.644223
vt 0.141805 0.591887
vt 0.143847 0.579772
vt 0.466482 0.673076
vt 0.489406 0.760202
vt 0.475866 0.760173
vt 0.258304 0.881109
vt 0.256721 0.869518
vt 0.465275 0.846732
vt 0.139709 0.931087
vt 0.138001 0.918886
vt 0.100625 0.971170
vt 0.080196 0.976714
vt 0.065886 0.017347
vt 0.086563 0.021784
vt 0.085065 0.532846
vt 0.105395 0.538823
vt 0.113505 0.453135
vt 0.093521 0.460138
vt 0.266568 0.917190
vt 0.530926 0.761073
vt 0.271175 0.595494
vt 0.144644 0.943728
vt 0.149736 0.565615
vt 0.156634 0.424619
vt 0.276642 0.390246
vt 0.496789 0.337149
vt 0.508522 0.321263
vt 0.529433 0.209404
vt 0.493625 0.101315
vt 0.479807 0.087172
vt 0.256116 0.062434
vt 0.133357 0.042944
vn 0.7246 0.0491 -0.6875
vn 0.2959 0.0372 -0.9545
vn 0.2703 0.0333 -0.9622
vn 0.6968 0.0356 -0.7164
vn -0.0951 0.0150 -0.9954
vn -0.0993 0.0123 -0.9950
vn -0.5113 -0.0226 -0.8591
vn -0.5086 -0.0346 -0.8603
vn -0.9105 -0.0689 -0.4077
vn -0.9019 -0.0953 -0.4214
vn -0.9106 -0.0803 0.4054
vn -0.9016 -0.1074 0.4190
vn -0.5115 -0.0468 0.8580
vn -0.5086 -0.0595 0.8590
vn -0.0951 -0.0130 0.9954
vn -0.0993 -0.0166 0.9949
vn 0.2959 0.0103 0.9552
vn 0.2702 0.0054 0.9628
vn 0.7247 0.0297 0.6884
vn 0.6966 0.0152 0.7173
vn 0.9989 0.0477 0.0005
vn 0.9997 0.0256 0.0006
vn 0.2650 -0.1206 -0.9567
vn 0.6917 -0.1073 -0.7142
vn -0.0039 -0.9999 -0.0134
vn -0.0953 -0.1038 -0.9900
vn -0.4851 -0.0520 -0.8729
vn -0.9121 0.0295 -0.4089
vn -0.9121 0.0185 0.4096
vn -0.4851 -0.0754 0.8712
vn -0.0953 -0.1304 0.9869
vn 0.2650 -0.1462 0.9531
vn 0.6917 -0.1264 0.7110
vn 0.9965 -0.0830 -0.0011
vn 0.2870 0.0393 -0.9571
vn 0.7143 0.0457 -0.6984
vn -0.0961 0.0611 -0.9935
vn -0.4936 0.1193 -0.8615
vn -0.8952 0.2001 -0.3982
vn -0.8952 0.1894 0.4035
vn -0.4936 0.0961 0.8644
vn -0.0961 0.0344 0.9948
vn 0.2870 0.0135 0.9578
vn 0.7143 0.0269 0.6994
vn 0.9986 0.0526 0.0007
vn 0.3259 0.0373 -0.9447
vn 0.7598 0.0535 -0.6480
vn 0.7608 0.0268 -0.6484
vn 0.3262 0.0216 -0.9450
vn -0.1052 0.0190 -0.9943
vn -0.1054 0.0133 -0.9943
vn -0.5432 -0.0009 -0.8396
vn -0.5438 0.0024 -0.8392
vn -0.9304 -0.0222 -0.3658
vn -0.9309 -0.0115 -0.3652
vn -0.9304 -0.0321 0.3650
vn -0.9309 -0.0213 0.3648
vn -0.5432 -0.0235 0.8392
vn -0.5438 -0.0201 0.8390
vn -0.1052 -0.0076 0.9944
vn -0.1054 -0.0134 0.9943
vn 0.3259 0.0119 0.9453
vn 0.3262 -0.0038 0.9453
vn 0.7598 0.0361 0.6492
vn 0.7608 0.0094 0.6489
vn 0.9984 0.0566 0.0008
vn 0.9997 0.0232 0.0003
vn 0.3281 -0.0069 -0.9446
vn 0.7615 -0.0226 -0.6477
vn 0.7603 -0.0245 -0.6491
vn 0.3271 0.0074 -0.9450
vn -0.1031 0.0041 -0.9947
vn -0.1029 0.0381 -0.9940
vn -0.5415 0.0109 -0.8406
vn -0.5396 0.0692 -0.8391
vn -0.9303 0.0114 -0.3665
vn -0.9263 0.0942 -0.3648
vn -0.9303 0.0015 0.3667
vn -0.9263 0.0844 0.3672
vn -0.5415 -0.0117 0.8406
vn -0.5396 0.0466 0.8406
vn -0.1031 -0.0227 0.9944
vn -0.1030 0.0114 0.9946
vn 0.3281 -0.0323 0.9441
vn 0.3271 -0.0179 0.9448
vn 0.7615 -0.0400 0.6469
vn 0.7603 -0.0419 0.6482
vn 0.9993 -0.0381 -0.0005
vn 0.9989 -0.0479 -0.0006
vn -0.0880 0.0399 -0.9953
vn -0.0797 0.0134 -0.9967
vn -0.2100 0.0132 -0.9776
vn -0.1975 0.0569 -0.9786
vn -0.3343 0.0634 -0.9403
vn -0.3436 0.0127 -0.9390
vn -0.3436 0.0128 -0.9390
vn -0.3338 0.0650 -0.9404
vn -0.3454 -0.0124 0.9384
vn -0.3454 -0.0125 0.9384
vn -0.3356 0.0397 0.9412
vn -0.3351 0.0414 0.9413
vn -0.2125 -0.0130 0.9771
vn -0.0749 -0.0134 0.9971
vn -0.0837 0.0153 0.9964
vn -0.1989 0.0335 0.9794
vn -0.3350 -0.0373 -0.9415
vn -0.3345 -0.0387 -0.9416
vn -0.0887 -0.0130 -0.9960
vn -0.1980 -0.0298 -0.9798
vn -0.0840 -0.0415 0.9956
vn -0.1993 -0.0589 0.9782
vn -0.3363 -0.0641 0.9396
vn -0.3358 -0.0656 0.9396
vn 0.1538 -0.9770 0.1477
vn -0.0821 -0.2890 0.9538
vn -0.2204 -0.1741 0.9598
vn 0.3884 -0.8785 0.2781
vn 0.1147 -0.9902 0.0799
vn 0.0496 -0.1357 0.9895
vn 0.9971 -0.0761 -0.0012
vn 0.1194 -0.9928 -0.0134
vn 0.1163 -0.9858 -0.1213
vn 0.9792 -0.0553 -0.1954
vn 0.9783 -0.0594 0.1984
vn 0.9850 -0.0023 0.1727
vn 0.0574 -0.0133 0.9983
vn 0.1507 0.9715 0.1828
vn -0.0792 0.2719 0.9591
vn 0.0511 0.1091 0.9927
vn 0.1148 0.9867 0.1153
vn 0.3846 0.8670 0.3169
vn -0.2178 0.1523 0.9640
vn 0.9791 0.0553 0.1958
vn 0.1187 0.9928 0.0134
vn 0.9971 0.0761 0.0012
vn 0.9783 0.0594 -0.1987
vn 0.1149 0.9899 -0.0833
vn 0.1488 0.9767 -0.1547
vn -0.0834 0.2908 -0.9531
vn -0.2178 0.1734 -0.9605
vn 0.3826 0.8731 -0.3023
vn 0.0406 0.1356 -0.9899
vn 0.9850 0.0023 -0.1724
vn 0.0482 0.0134 -0.9987
vn 0.1458 -0.9705 -0.1922
vn -0.0844 -0.2574 -0.9626
vn 0.0419 -0.1077 -0.9933
vn 0.3762 -0.8604 -0.3439
vn -0.2202 -0.1437 -0.9648
vn 0.4647 -0.8854 -0.0129
vn -0.2951 -0.1011 -0.9501
vn -0.2957 -0.1299 0.9464
vn -0.2931 0.1290 -0.9473
vn 0.4653 0.8851 0.0108
vn -0.2935 0.1070 0.9499
vn 0.1759 -0.9843 -0.0132
vn 1.0000 0.0000 0.0000
vn 0.1757 0.9844 0.0132
vn 0.4505 -0.8927 -0.0120
vn 0.4515 0.8922 0.0120
usemtl StingrayPBS1
s 1
f 35/1/1 36/2/2 13/3/3 12/4/4
f 36/2/2 37/5/5 14/6/6 13/3/3
f 37/5/5 38/7/7 15/8/8 14/6/6
f 38/7/7 39/9/9 16/10/10 15/8/8
f 39/9/9 40/11/11 17/12/12 16/10/10
f 40/13/11 41/14/13 18/15/14 17/16/12
f 41/14/13 42/17/15 19/18/16 18/15/14
f 42/17/15 43/19/17 20/20/18 19/18/16
f 43/19/17 44/21/19 21/22/20 20/20/18
f 44/21/19 45/23/21 22/24/22 21/22/20
f 45/23/21 35/1/1 12/4/4 22/24/22
f 2/25/23 1/26/24 23/27/25
f 3/28/26 2/25/23 23/27/25
f 4/29/27 3/28/26 23/27/25
f 5/30/28 4/29/27 23/27/25
f 6/31/29 5/30/28 23/27/25
f 7/32/30 6/31/29 23/27/25
f 8/33/31 7/32/30 23/27/25
f 9/34/32 8/33/31 23/27/25
f 10/35/33 9/34/32 23/27/25
f 11/36/34 10/35/33 23/27/25
f 1/26/24 11/36/34 23/27/25
f 1/37/24 2/38/23 25/39/35 24/40/36
f 2/38/23 3/41/26 26/42/37 25/39/35
f 3/41/26 4/43/27 27/44/38 26/42/37
f 4/43/27 5/45/28 28/46/39 27/44/38
f 5/45/28 6/47/29 29/48/40 28/46/39
f 6/49/29 7/50/30 30/51/41 29/52/40
f 7/50/30 8/53/31 31/54/42 30/51/41
f 8/53/31 9/55/32 32/56/43 31/54/42
f 9/55/32 10/57/33 33/58/44 32/56/43
f 10/57/33 11/59/34 34/60/45 33/58/44
f 11/59/34 1/37/24 24/40/36 34/60/45
f 89/61/46 79/62/47 46/63/48 47/64/49
f 88/65/50 89/61/46 47/64/49 48/66/51
f 87/67/52 88/65/50 48/66/51 49/68/53
f 86/69/54 87/67/52 49/68/53 50/70/55
f 85/71/56 86/69/54 50/70/55 51/72/57
f 84/73/58 85/74/56 51/75/57 52/76/59
f 83/77/60 84/73/58 52/76/59 53/78/61
f 82/79/62 83/77/60 53/78/61 54/80/63
f 81/81/64 82/79/62 54/80/63 55/82/65
f 80/83/66 81/81/64 55/82/65 56/84/67
f 79/62/47 80/83/66 56/84/67 46/63/48
f 78/85/68 68/86/69 57/87/70 58/88/71
f 77/89/72 78/85/68 58/88/71 59/90/73
f 76/91/74 77/89/72 59/90/73 60/92/75
f 75/93/76 76/91/74 60/92/75 61/94/77
f 74/95/78 75/93/76 61/94/77 62/96/79
f 73/97/80 74/98/78 62/99/79 63/100/81
f 72/101/82 73/97/80 63/100/81 64/102/83
f 71/103/84 72/101/82 64/102/83 65/104/85
f 70/105/86 71/103/84 65/104/85 66/106/87
f 69/107/88 70/105/86 66/106/87 67/108/89
f 68/86/69 69/107/88 67/108/89 57/87/70
f 58/88/71 57/87/70 24/40/36 25/39/35
f 59/90/73 58/88/71 25/39/35 26/42/37
f 60/92/75 59/90/73 26/42/37 27/44/38
f 61/94/77 60/92/75 27/44/38 28/46/39
f 62/96/79 61/94/77 28/46/39 29/48/40
f 63/100/81 62/99/79 29/52/40 30/51/41
f 64/102/83 63/100/81 30/51/41 31/54/42
f 65/104/85 64/102/83 31/54/42 32/56/43
f 66/106/87 65/104/85 32/56/43 33/58/44
f 67/108/89 66/106/87 33/58/44 34/60/45
f 57/87/70 67/108/89 34/60/45 24/40/36
f 46/63/48 56/84/67 69/107/88 68/86/69
f 56/84/67 55/82/65 70/105/86 69/107/88
f 55/82/65 54/80/63 71/103/84 70/105/86
f 54/80/63 53/78/61 72/101/82 71/103/84
f 53/78/61 52/76/59 73/97/80 72/101/82
f 52/76/59 51/75/57 74/98/78 73/97/80
f 51/72/57 50/70/55 75/93/76 74/95/78
f 50/70/55 49/68/53 76/91/74 75/93/76
f 49/68/53 48/66/51 77/89/72 76/91/74
f 48/66/51 47/64/49 78/85/68 77/89/72
f 47/64/49 46/63/48 68/86/69 78/85/68
f 35/1/1 45/23/21 80/83/66 79/62/47
f 45/23/21 44/21/19 81/81/64 80/83/66
f 44/21/19 43/19/17 82/79/62 81/81/64
f 43/19/17 42/17/15 83/77/60 82/79/62
f 42/17/15 41/14/13 84/73/58 83/77/60
f 41/14/13 40/13/11 85/74/56 84/73/58
f 40/11/11 39/9/9 86/69/54 85/71/56
f 39/9/9 38/7/7 87/67/52 86/69/54
f 38/7/7 37/5/5 88/65/50 87/67/52
f 37/5/5 36/2/2 89/61/46 88/65/50
f 36/2/2 35/1/1 79/62/47 89/61/46
f 100/109/90 91/110/91 93/111/92 101/112/93
f 101/112/94 93/111/95 92/113/96 94/114/97
f 92/115/98 95/116/99 102/117/100 94/118/101
f 95/116/102 90/119/103 99/120/104 102/117/105
f 92/113/96 93/111/95 103/121/106 98/122/107
f 93/111/92 91/110/91 97/123/108 103/121/109
f 96/124/110 90/119/103 95/116/102 104/125/111
f 104/125/112 95/116/99 92/115/98 98/126/113
f 105/127/114 106/128/115 136/129/116 135/130/117
f 106/128/115 105/127/114 107/131/118 109/132/119
f 146/133/120 147/134/121 123/135/122 122/136/123
f 109/132/119 108/137/124 125/138/125 126/139/126
f 110/140/127 111/141/128 114/142/129 113/143/130
f 111/141/128 110/140/127 137/144/131 138/145/132
f 112/146/133 114/142/129 126/139/126 125/138/125
f 143/147/134 144/148/135 118/149/136 117/150/137
f 115/151/138 116/152/139 132/153/140 131/154/141
f 116/152/139 115/151/138 117/150/137 119/155/142
f 119/155/142 118/149/136 140/156/143 139/157/144
f 120/158/145 121/159/146 124/160/147 123/135/122
f 121/159/146 120/158/145 127/161/148 128/162/149
f 122/136/123 124/160/147 139/157/144 140/156/143
f 128/162/149 127/161/148 129/163/150 130/164/151
f 130/165/152 129/166/150 135/130/117 136/129/116
f 131/154/141 132/153/140 134/167/153 133/168/154
f 133/169/154 134/170/155 138/145/132 137/144/131
f 120/158/145 123/135/122 147/134/121 148/171/156
f 140/156/143 145/172/157 146/133/120 122/136/123
f 142/173/158 143/147/134 117/150/137 115/151/138
f 127/161/148 120/158/145 148/171/156 149/174/159
f 116/152/139 100/109/90 101/112/93 132/153/140
f 132/153/140 101/112/94 94/114/97 134/167/153
f 127/161/148 149/174/159 129/163/150
f 102/117/105 99/120/104 111/141/128 138/145/132
f 94/118/101 102/117/100 138/145/132 134/170/155
f 141/175/160 142/173/158 115/151/138 131/154/141
f 133/168/154 141/175/160 131/154/141
f 96/124/110 109/132/119 126/139/126 90/119/103
f 97/123/108 124/160/147 121/159/146
f 103/121/109 97/123/108 121/159/146 128/162/149
f 98/122/107 103/121/106 128/162/149 130/164/151
f 106/128/115 96/124/110 104/125/111 136/129/116
f 136/129/116 104/125/112 98/126/113 130/165/152
f 119/155/142 100/109/90 116/152/139
f 139/157/144 91/110/91 100/109/90 119/155/142
f 118/149/136 144/148/135 145/172/157 140/156/143
f 99/120/104 114/142/129 111/141/128
f 96/124/110 106/128/115 109/132/119
f 90/119/103 126/139/126 114/142/129 99/120/104
f 97/123/108 91/110/91 139/157/144 124/160/147
f 107/131/118 108/137/124 109/132/119
f 112/146/133 113/143/130 114/142/129
f 117/150/137 118/149/136 119/155/142
f 122/136/123 123/135/122 124/160/147
f 133/169/154 137/144/131 141/176/160
f 137/144/131 110/140/127 142/177/158 141/176/160
f 110/140/127 113/143/130 143/178/134 142/177/158
f 113/143/130 112/146/133 144/179/135 143/178/134
f 145/180/157 144/179/135 112/146/133 125/138/125
f 146/181/120 145/180/157 125/138/125 108/137/124
f 108/137/124 107/131/118 147/182/121 146/181/120
f 148/183/156 147/182/121 107/131/118 105/127/114
f 149/184/159 148/183/156 105/127/114 135/130/117
f 129/166/150 149/184/159 135/130/117
